<svg xmlns="http://www.w3.org/2000/svg" viewBox="0 0 400 400" fill="none">
  <rect width="400" height="400" fill="#1a1a2e"/>

  <!-- Outer circle for context -->
  <circle cx="200" cy="200" r="160" fill="none" stroke="#333" stroke-width="1" stroke-dasharray="4 4"/>

  <!-- Valknut - three interlocking triangles -->
  <!-- Triangle 1 (top) -->
  <polygon points="200,60 280,200 120,200" fill="none" stroke="#c9a227" stroke-width="4" stroke-linejoin="round"/>

  <!-- Triangle 2 (bottom left) -->
  <polygon points="120,200 200,340 80,280" fill="none" stroke="#c9a227" stroke-width="4" stroke-linejoin="round"/>

  <!-- Triangle 3 (bottom right) -->
  <polygon points="280,200 320,280 200,340" fill="none" stroke="#c9a227" stroke-width="4" stroke-linejoin="round"/>

  <!-- Interlocking overlaps (white gaps to show weave) -->
  <line x1="152" y1="200" x2="168" y2="200" stroke="#1a1a2e" stroke-width="8"/>
  <line x1="232" y1="200" x2="248" y2="200" stroke="#1a1a2e" stroke-width="8"/>
  <line x1="140" y1="240" x2="152" y2="260" stroke="#1a1a2e" stroke-width="8"/>
  <line x1="248" y1="260" x2="260" y2="240" stroke="#1a1a2e" stroke-width="8"/>
  <line x1="188" y1="300" x2="212" y2="300" stroke="#1a1a2e" stroke-width="8"/>

  <!-- Redraw interlock lines -->
  <line x1="152" y1="200" x2="168" y2="200" stroke="#c9a227" stroke-width="4"/>
  <line x1="232" y1="200" x2="248" y2="200" stroke="#c9a227" stroke-width="4"/>
  <line x1="140" y1="240" x2="152" y2="260" stroke="#c9a227" stroke-width="4"/>
  <line x1="248" y1="260" x2="260" y2="240" stroke="#c9a227" stroke-width="4"/>
  <line x1="188" y1="300" x2="212" y2="300" stroke="#c9a227" stroke-width="4"/>

  <!-- Label -->
  <text x="200" y="380" text-anchor="middle" fill="#666" font-family="system-ui" font-size="12">VALKNUT</text>
  <text x="200" y="395" text-anchor="middle" fill="#c9a227" font-family="system-ui" font-size="10">Three Interlocking Triangles</text>
</svg>